<svg width="56" height="56" viewBox="0 0 56 56" fill="none" xmlns="http://www.w3.org/2000/svg">
<path d="M35 51.3333V42C35.3246 39.077 34.4865 36.1436 32.6667 33.8333C39.6667 33.8333 46.6667 29.1666 46.6667 21C46.8533 18.0833 46.0367 15.2133 44.3333 12.8333C44.9867 10.15 44.9867 7.34996 44.3333 4.66663C44.3333 4.66663 42 4.66663 37.3333 8.16663C31.1733 6.99996 24.8267 6.99996 18.6667 8.16663C14 4.66663 11.6667 4.66663 11.6667 4.66663C10.9667 7.34996 10.9667 10.15 11.6667 12.8333C9.96769 15.2037 9.14309 18.0898 9.33332 21C9.33332 29.1666 16.3333 33.8333 23.3333 33.8333C22.4233 34.9766 21.7467 36.2833 21.35 37.6833C20.9533 39.0833 20.8367 40.5533 21 42V51.3333" stroke="black" strokeWidth="2" strokeLinecap="round" strokeLinejoin="round"/>
<path d="M21 42C10.4767 46.6667 9.33332 37.3334 4.66666 37.3334" stroke="black" strokeWidth="2" strokeLinecap="round" strokeLinejoin="round"/>
</svg>
