<svg width="56" height="56" viewBox="0 0 56 56" fill="none" xmlns="http://www.w3.org/2000/svg">
<path d="M37.3333 18.6666C41.0464 18.6666 44.6073 20.1416 47.2328 22.7671C49.8583 25.3926 51.3333 28.9536 51.3333 32.6666V49H42V32.6666C42 31.4289 41.5083 30.242 40.6332 29.3668C39.758 28.4916 38.571 28 37.3333 28C36.0957 28 34.9087 28.4916 34.0335 29.3668C33.1583 30.242 32.6667 31.4289 32.6667 32.6666V49H23.3333V32.6666C23.3333 28.9536 24.8083 25.3926 27.4338 22.7671C30.0594 20.1416 33.6203 18.6666 37.3333 18.6666Z" stroke="black" strokeWidth="2" strokeLinecap="round" strokeLinejoin="round"/>
<path d="M14 21H4.66666V49H14V21Z" stroke="black" strokeWidth="2" strokeLinecap="round" strokeLinejoin="round"/>
<path d="M9.33332 14C11.9107 14 14 11.9106 14 9.33329C14 6.75596 11.9107 4.66663 9.33332 4.66663C6.75599 4.66663 4.66666 6.75596 4.66666 9.33329C4.66666 11.9106 6.75599 14 9.33332 14Z" stroke="black" stroke-width="2" stroke-linecap="round" stroke-linejoin="round"/>
</svg>
